<?xml version="1.0" encoding="UTF-8" standalone="no"?>
<!-- Created with Inkscape (http://www.inkscape.org/) -->

<svg
   xmlns:dc="http://purl.org/dc/elements/1.1/"
   xmlns:cc="http://creativecommons.org/ns#"
   xmlns:rdf="http://www.w3.org/1999/02/22-rdf-syntax-ns#"
   xmlns:svg="http://www.w3.org/2000/svg"
   xmlns="http://www.w3.org/2000/svg"
   xmlns:sodipodi="http://sodipodi.sourceforge.net/DTD/sodipodi-0.dtd"
   xmlns:inkscape="http://www.inkscape.org/namespaces/inkscape"
   id="svg3090"
   version="1.1"
   inkscape:version="0.48.5 r10040"
   width="1024"
   height="1024"
   sodipodi:docname="767uv.svg">
  <metadata
     id="metadata3096">
    <rdf:RDF>
      <cc:Work
         rdf:about="">
        <dc:format>image/svg+xml</dc:format>
        <dc:type
           rdf:resource="http://purl.org/dc/dcmitype/StillImage" />
        <dc:title></dc:title>
      </cc:Work>
    </rdf:RDF>
  </metadata>
  <defs
     id="defs3094" />
  <sodipodi:namedview
     pagecolor="#ffffff"
     bordercolor="#666666"
     borderopacity="1"
     objecttolerance="10"
     gridtolerance="10"
     guidetolerance="10"
     inkscape:pageopacity="0"
     inkscape:pageshadow="2"
     inkscape:window-width="1366"
     inkscape:window-height="702"
     id="namedview3092"
     showgrid="false"
     inkscape:zoom="0.23046875"
     inkscape:cx="555.99449"
     inkscape:cy="505.874"
     inkscape:window-x="0"
     inkscape:window-y="27"
     inkscape:window-maximized="1"
     inkscape:current-layer="layer2" />
  <path
     style="fill:none;stroke:#000000;stroke-width:1px;stroke-linecap:butt;stroke-linejoin:miter;stroke-opacity:1"
     d="m 327.05085,8.677964 1.08474,121.762716"
     id="path3102"
     inkscape:connector-curvature="0" />
  <path
     style="fill:none;stroke:#000000;stroke-width:1px;stroke-linecap:butt;stroke-linejoin:miter;stroke-opacity:1"
     d="m 627.81494,11.135451 1.53407,121.957939"
     id="path3104"
     inkscape:connector-curvature="0" />
  <path
     style="fill:none;stroke:#000000;stroke-width:1px;stroke-linecap:butt;stroke-linejoin:miter;stroke-opacity:1"
     d="M 755.1421,9.9849042 754.75859,133.86042"
     id="path3106"
     inkscape:connector-curvature="0" />
  <path
     style="fill:none;stroke:#000000;stroke-width:1px;stroke-linecap:butt;stroke-linejoin:miter;stroke-opacity:1"
     d="M 131.54583,12.285997 132.31286,135.778"
     id="path3108"
     inkscape:connector-curvature="0" />
  <path
     style="fill:none;stroke:#000000;stroke-width:1px;stroke-linecap:butt;stroke-linejoin:miter;stroke-opacity:1"
     d="M 19.559293,54.760343 19.75105,100.11106"
     id="path3110"
     inkscape:connector-curvature="0" />
  <path
     style="fill:none;stroke:#000000;stroke-width:1px;stroke-linecap:butt;stroke-linejoin:miter;stroke-opacity:1"
     d="m 852.0678,13.830506 0.81356,96.271184"
     id="path3112"
     inkscape:connector-curvature="0" />
  <path
     style="fill:none;stroke:#000000;stroke-width:1px;stroke-linecap:butt;stroke-linejoin:miter;stroke-opacity:1"
     d="m 909.28814,21.694913 c 0,0 0.54237,72.949153 0.54237,74.305085"
     id="path3114"
     inkscape:connector-curvature="0" />
  <path
     style="fill:none;stroke:#000000;stroke-width:1px;stroke-linecap:butt;stroke-linejoin:miter;stroke-opacity:1"
     d="M 957.55932,31.457625 957.83051,85.9661"
     id="path3116"
     inkscape:connector-curvature="0" />
  <path
     style="fill:none;stroke:#000000;stroke-width:1px;stroke-linecap:butt;stroke-linejoin:miter;stroke-opacity:1"
     d="m 62.101695,169.49152 -0.813559,55.32204"
     id="path3118"
     inkscape:connector-curvature="0" />
  <path
     style="fill:none;stroke:#000000;stroke-width:1px;stroke-linecap:butt;stroke-linejoin:miter;stroke-opacity:1"
     d="m 109.55932,162.44068 -0.54237,73.49152"
     id="path3120"
     inkscape:connector-curvature="0" />
  <path
     style="fill:none;stroke:#000000;stroke-width:1px;stroke-linecap:butt;stroke-linejoin:miter;stroke-opacity:1"
     d="m 165.9661,153.76271 0.81356,95.18644"
     id="path3122"
     inkscape:connector-curvature="0" />
  <path
     style="fill:none;stroke:#000000;stroke-width:1px;stroke-linecap:butt;stroke-linejoin:miter;stroke-opacity:1"
     d="m 264.67797,148.33898 -1.62712,131.25424"
     id="path3124"
     inkscape:connector-curvature="0" />
  <path
     style="fill:none;stroke:#000000;stroke-width:1px;stroke-linecap:butt;stroke-linejoin:miter;stroke-opacity:1"
     d="m 389.9661,147.79661 c 0,0 0.27119,119.59322 0.54238,118.50847"
     id="path3126"
     inkscape:connector-curvature="0" />
  <path
     style="fill:none;stroke:#000000;stroke-width:1px;stroke-linecap:butt;stroke-linejoin:miter;stroke-opacity:1"
     d="m 692.33898,149.15254 -1.35593,125.28814"
     id="path3128"
     inkscape:connector-curvature="0" />
  <path
     style="fill:none;stroke:#000000;stroke-width:1px;stroke-linecap:butt;stroke-linejoin:miter;stroke-opacity:1"
     d="M 890.30509,267.38983 889.76271,149.9661"
     id="path3132"
     inkscape:connector-curvature="0" />
  <path
     style="fill:none;stroke:#000000;stroke-width:1px;stroke-linecap:butt;stroke-linejoin:miter;stroke-opacity:1"
     d="m 1001.2203,193.8983 -0.9491,43.52543"
     id="path3134"
     inkscape:connector-curvature="0" />
  <path
     style="fill:none;stroke:#000000;stroke-width:1px;stroke-linecap:butt;stroke-linejoin:miter;stroke-opacity:1"
     d="m 0.57527332,73.744362 131.83346668,0.287637 195.11353,-0.287637 198.66106,-0.191758 102.78216,0.09588 127.23128,-0.09588 96.55004,0.09588 57.33557,-0.09588 48.32296,-7.286795 17.44996,-11.121951 29.0513,0.191758"
     id="path3136"
     inkscape:connector-curvature="0" />
  <path
     style="fill:none;stroke:#000000;stroke-width:1px;stroke-linecap:butt;stroke-linejoin:miter;stroke-opacity:1"
     d="m 2.6846088,87.646801 210.9335512,-0.191758 121.76618,0.958789 300.86795,-0.383515 119.46509,-0.383516 96.2624,0.191758 57.52733,-9.396131 49.66526,-9.012615 16.68293,-8.437342 28.9554,-0.191758"
     id="path3138"
     inkscape:connector-curvature="0" />
  <path
     style="fill:none;stroke:#000000;stroke-width:1px;stroke-linecap:butt;stroke-linejoin:miter;stroke-opacity:1"
     d="m 38.926828,105.09676 118.889822,1.72582 178.52648,0 181.78637,-1.34231 c 0,0 125.60134,1.72582 126.36837,1.15055 0.76703,-0.57527 109.49369,-0.57527 109.49369,-0.57527 l 98.75525,-18.408749"
     id="path3140"
     inkscape:connector-curvature="0" />
  <path
     style="fill:none;stroke:#000000;stroke-width:1px;stroke-linecap:butt;stroke-linejoin:miter;stroke-opacity:1"
     d="m 20.20339,54.101692 22.237288,4.067797 15.186441,0.40678 6.508474,-3.389831 72.271187,0.40678 202.71186,-0.135593 155.52543,-0.40678 109.69491,1.084746 151.45763,-0.40678 97.76271,0.542373 62.91526,-0.40678 63.59322,-0.406779"
     id="path3144"
     inkscape:connector-curvature="0" />
  <path
     style="fill:none;stroke:#000000;stroke-width:1px;stroke-linecap:butt;stroke-linejoin:miter;stroke-opacity:1"
     d="m 41.898305,37.694913 90.169495,0.813559 149.28813,0.271186 166.1017,-0.406779 151.45763,0.406779 157.28813,0 97.22034,-0.271186 c 0,0 56.67797,0.542373 56.67797,0 0,-0.542373 47.45762,6.372881 47.45762,6.372881 l 16.1356,3.254238 22.10169,7.18644"
     id="path3146"
     inkscape:connector-curvature="0" />
  <path
     style="fill:none;stroke:#000000;stroke-width:1px;stroke-linecap:butt;stroke-linejoin:miter;stroke-opacity:1"
     d="m 79.661017,25.288132 52.203393,-0.881356 210.91525,0.20339 83.11865,0.135594 58.50847,-0.0678 65.01695,-0.20339 80.81356,0.271187 77.08475,-0.474577 54.98305,-0.20339 78.64407,3.254238 38.50847,3.59322 30.16949,3.118644 47.72882,10.508475"
     id="path3150"
     inkscape:connector-curvature="0" />
  <rect
     style="color:#000000;fill:none;stroke:#000000;stroke-width:1px;stroke-linecap:butt;stroke-linejoin:miter;stroke-miterlimit:4;stroke-opacity:1;stroke-dasharray:none;stroke-dashoffset:0;marker:none;visibility:visible;display:inline;overflow:visible;enable-background:accumulate"
     id="rect3152"
     width="23.010935"
     height="42.378464"
     x="100.86459"
     y="42.775482"
     ry="3.2598822" />
  <rect
     style="color:#000000;fill:none;stroke:#000000;stroke-width:1px;stroke-linecap:butt;stroke-linejoin:miter;stroke-miterlimit:4;stroke-opacity:1;stroke-dasharray:none;stroke-dashoffset:0;marker:none;visibility:visible;display:inline;overflow:visible;enable-background:accumulate"
     id="rect3154"
     width="23.682085"
     height="42.18671"
     x="777.76953"
     y="43.254875"
     ry="3.2598822" />
  <rect
     style="color:#000000;fill:none;stroke:#000000;stroke-width:1px;stroke-linecap:butt;stroke-linejoin:miter;stroke-miterlimit:4;stroke-opacity:1;stroke-dasharray:none;stroke-dashoffset:0;marker:none;visibility:visible;display:inline;overflow:visible;enable-background:accumulate"
     id="rect3156"
     width="14.57359"
     height="24.065599"
     x="440.65936"
     y="52.26749"
     ry="3.2598822" />
  <rect
     style="color:#000000;fill:none;stroke:#000000;stroke-width:1px;stroke-linecap:butt;stroke-linejoin:miter;stroke-miterlimit:4;stroke-opacity:1;stroke-dasharray:none;stroke-dashoffset:0;marker:none;visibility:visible;display:inline;overflow:visible;enable-background:accumulate"
     id="rect3158"
     width="14.861227"
     height="24.640873"
     x="419.85364"
     y="51.883976"
     ry="3.2598822" />
  <path
     style="fill:none;stroke:#000000;stroke-width:1px;stroke-linecap:butt;stroke-linejoin:miter;stroke-opacity:1"
     d="m 998.67447,192.92182 -18.02523,3.83515 -16.10765,0.57528 -7.09504,-2.68461 -93.38603,-0.38352 -189.26492,0.38352 -254.65432,0 -216.49453,0.19176 -191.182495,0.38351"
     id="path3195"
     inkscape:connector-curvature="0" />
  <path
     style="fill:none;stroke:#000000;stroke-width:1px;stroke-linecap:butt;stroke-linejoin:miter;stroke-opacity:1"
     d="m 1022.9153,212.88135 -155.11869,0.54238 -248.40678,1.08474 -109.55932,-0.54237 -202.30509,-0.54237 -150.77966,-0.54238 -46.64406,-0.54237 -48.271191,-7.32203 -40.135594,-9.49153"
     id="path3197"
     inkscape:connector-curvature="0" />
  <path
     style="fill:none;stroke:#000000;stroke-width:1px;stroke-linecap:butt;stroke-linejoin:miter;stroke-opacity:1"
     d="m 1004.2034,235.38983 c -4.33899,0 -171.66103,-0.27119 -171.66103,-0.27119 L 480,234.57627 262.50848,234.0339 167.05085,227.79661 108.20339,213.15254"
     id="path3201"
     inkscape:connector-curvature="0" />
  <path
     style="fill:none;stroke:#000000;stroke-width:1px;stroke-linecap:butt;stroke-linejoin:miter;stroke-opacity:1"
     d="m 945.08475,251.9322 -136.67797,-1.08474 -191.18644,0.27118 -227.25424,-0.27118 -127.72881,0 -96,-22.77967"
     id="path3205"
     inkscape:connector-curvature="0" />
  <path
     style="fill:none;stroke:#000000;stroke-width:1px;stroke-linecap:butt;stroke-linejoin:miter;stroke-opacity:1"
     d="m 980.33899,178.16949 -122.0339,-0.81356 -248.67797,-1.08475 -263.86441,0.81356 -179.79661,0.54238 -57.22034,7.32203 -77.016946,11.66102"
     id="path3207"
     inkscape:connector-curvature="0" />
  <path
     style="fill:none;stroke:#000000;stroke-width:1px;stroke-linecap:butt;stroke-linejoin:miter;stroke-opacity:1"
     d="m 956.20339,167.05085 c -4.61017,-0.81356 -221.83051,-0.27119 -221.83051,-0.27119 l -258.71186,-0.54237 -227.79661,0 -82.98305,0.81356 -102.237292,16 -34.440678,14.91525"
     id="path3209"
     inkscape:connector-curvature="0" />
  <rect
     style="color:#000000;fill:none;stroke:#000000;stroke-width:1px;stroke-linecap:butt;stroke-linejoin:miter;stroke-miterlimit:4;stroke-opacity:1;stroke-dasharray:none;stroke-dashoffset:0;marker:none;visibility:visible;display:inline;overflow:visible;enable-background:accumulate"
     id="rect3211"
     width="22.644068"
     height="44.745762"
     x="217.08475"
     y="181.55933"
     ry="3.2598822" />
  <rect
     style="color:#000000;fill:none;stroke:#000000;stroke-width:1px;stroke-linecap:butt;stroke-linejoin:miter;stroke-miterlimit:4;stroke-opacity:1;stroke-dasharray:none;stroke-dashoffset:0;marker:none;visibility:visible;display:inline;overflow:visible;enable-background:accumulate"
     id="rect3213"
     width="15.18644"
     height="23.59322"
     x="563.93219"
     y="192.13559"
     ry="3.2598822" />
  <rect
     style="color:#000000;fill:none;stroke:#000000;stroke-width:1px;stroke-linecap:butt;stroke-linejoin:miter;stroke-miterlimit:4;stroke-opacity:1;stroke-dasharray:none;stroke-dashoffset:0;marker:none;visibility:visible;display:inline;overflow:visible;enable-background:accumulate"
     id="rect3215"
     width="14.372881"
     height="25.220339"
     x="584.81354"
     y="191.18643"
     ry="3.2598822" />
  <rect
     style="color:#000000;fill:none;stroke:#000000;stroke-width:1px;stroke-linecap:butt;stroke-linejoin:miter;stroke-miterlimit:4;stroke-opacity:1;stroke-dasharray:none;stroke-dashoffset:0;marker:none;visibility:visible;display:inline;overflow:visible;enable-background:accumulate"
     id="rect3217"
     width="24.677967"
     height="44.067799"
     x="895.32202"
     y="181.96609"
     ry="3.2598822" />
  <g
     inkscape:groupmode="layer"
     id="layer1"
     inkscape:label="Layer" />
  <g
     inkscape:groupmode="layer"
     id="layer2"
     inkscape:label="Layer#1"
     style="display:inline">
    <path
       style="fill:none;stroke:#000000;stroke-width:1px;stroke-linecap:butt;stroke-linejoin:miter;stroke-opacity:1"
       d="m 16.203532,279.11694 c 0.671152,-0.0959 40.173253,-0.57528 40.173253,-0.57528"
       id="path3353"
       inkscape:connector-curvature="0" />
    <path
       style="fill:none;stroke:#000000;stroke-width:1px;stroke-linecap:butt;stroke-linejoin:miter;stroke-opacity:1"
       d="M 44.391924,256.01012 261.5576,625.62323"
       id="path3355"
       inkscape:connector-curvature="0" />
    <path
       style="fill:none;stroke:#000000;stroke-width:1px;stroke-linecap:butt;stroke-linejoin:miter;stroke-opacity:1"
       d="m 158.91525,644.88136 103.59323,-19.52543 86.77966,-17.62712 57.76271,-19.25423 10.84746,-10.0339"
       id="path3357"
       inkscape:connector-curvature="0" />
    <path
       style="fill:none;stroke:#000000;stroke-width:1px;stroke-linecap:butt;stroke-linejoin:miter;stroke-opacity:1"
       d="M 260.33898,625.08474 355.52542,616.67797 441.49153,602.0339 405.9661,588.20339 120.94915,277.15254"
       id="path3359"
       inkscape:connector-curvature="0" />
    <path
       style="fill:none;stroke:#000000;stroke-width:1px;stroke-linecap:butt;stroke-linejoin:miter;stroke-opacity:1"
       d="m 85.694915,279.05085 41.491525,-1.62712"
       id="path3361"
       inkscape:connector-curvature="0" />
    <path
       style="fill:none;stroke:#000000;stroke-width:1px;stroke-linecap:butt;stroke-linejoin:miter;stroke-opacity:1"
       d="M 112.27119,279.05085 394.30509,592"
       id="path3363"
       inkscape:connector-curvature="0" />
    <path
       style="fill:none;stroke:#000000;stroke-width:1px;stroke-linecap:butt;stroke-linejoin:miter;stroke-opacity:1"
       d="M 350.1017,608 96.271187,279.05085 l 0,-6.50848 -12.474577,-1.8983 -0.271186,6.23728"
       id="path3365"
       inkscape:connector-curvature="0" />
    <path
       style="fill:none;stroke:#000000;stroke-width:1px;stroke-linecap:butt;stroke-linejoin:miter;stroke-opacity:1"
       d="m 155.38983,625.62712 104.40678,-5.15254"
       id="path3367"
       inkscape:connector-curvature="0" />
    <path
       style="fill:none;stroke:#000000;stroke-width:1px;stroke-linecap:butt;stroke-linejoin:miter;stroke-opacity:1"
       d="m 229.9661,388.61017 14.91526,-8.94915"
       id="path3369"
       inkscape:connector-curvature="0" />
    <path
       style="fill:none;stroke:#000000;stroke-width:1px;stroke-linecap:butt;stroke-linejoin:miter;stroke-opacity:1"
       d="m 305.89831,464.81356 18.71186,-12.20339"
       id="path3371"
       inkscape:connector-curvature="0" />
    <path
       style="fill:none;stroke:#000000;stroke-width:1px;stroke-linecap:butt;stroke-linejoin:miter;stroke-opacity:1"
       d="m 377.49153,539.9322 24.67796,-12.20339"
       id="path3373"
       inkscape:connector-curvature="0" />
    <path
       style="fill:none;stroke:#000000;stroke-width:1px;stroke-linecap:butt;stroke-linejoin:miter;stroke-opacity:1"
       d="m 413.83051,576 22.77966,-10.84746"
       id="path3375"
       inkscape:connector-curvature="0" />
    <path
       style="fill:none;stroke:#000000;stroke-width:1px;stroke-linecap:butt;stroke-linejoin:miter;stroke-opacity:1"
       d="m 433.08475,596.33898 24.67796,-11.66101"
       id="path3377"
       inkscape:connector-curvature="0" />
    <path
       style="fill:none;stroke:#000000;stroke-width:1px;stroke-linecap:butt;stroke-linejoin:miter;stroke-opacity:1"
       d="m 466.98305,620.20339 c 0,-2.71187 7.32204,-28.74576 7.32204,-28.74576"
       id="path3379"
       inkscape:connector-curvature="0" />
    <path
       style="fill:none;stroke:#000000;stroke-width:1px;stroke-linecap:butt;stroke-linejoin:miter;stroke-opacity:1"
       d="M 455.86441,616.67797 374.50848,535.86441 228.0678,382.10169 121.22034,272 109.01695,265.22034 74.033898,255.18644"
       id="path3381"
       inkscape:connector-curvature="0" />
    <path
       style="fill:none;stroke:#000000;stroke-width:1px;stroke-linecap:butt;stroke-linejoin:miter;stroke-opacity:1;display:inline"
       d="m 1024.6779,283.38812 c -0.6712,-0.0959 -40.17325,-0.57528 -40.17325,-0.57528"
       id="path3353-8"
       inkscape:connector-curvature="0" />
    <path
       style="fill:none;stroke:#000000;stroke-width:1px;stroke-linecap:butt;stroke-linejoin:miter;stroke-opacity:1;display:inline"
       d="M 996.4895,260.2813 779.32383,629.89441"
       id="path3355-4"
       inkscape:connector-curvature="0" />
    <path
       style="fill:none;stroke:#000000;stroke-width:1px;stroke-linecap:butt;stroke-linejoin:miter;stroke-opacity:1;display:inline"
       d="M 881.96618,649.15254 778.37295,629.62711 691.59329,611.99999 633.83058,592.74576 622.98312,582.71186"
       id="path3357-9"
       inkscape:connector-curvature="0" />
    <path
       style="fill:none;stroke:#000000;stroke-width:1px;stroke-linecap:butt;stroke-linejoin:miter;stroke-opacity:1;display:inline"
       d="M 780.54245,629.35592 685.35601,620.94915 599.3899,606.30508 634.91533,592.47457 919.93228,281.42372"
       id="path3359-4"
       inkscape:connector-curvature="0" />
    <path
       style="fill:none;stroke:#000000;stroke-width:1px;stroke-linecap:butt;stroke-linejoin:miter;stroke-opacity:1;display:inline"
       d="m 955.18652,283.32203 -41.49153,-1.62712"
       id="path3361-9"
       inkscape:connector-curvature="0" />
    <path
       style="fill:none;stroke:#000000;stroke-width:1px;stroke-linecap:butt;stroke-linejoin:miter;stroke-opacity:1;display:inline"
       d="M 928.61024,283.32203 646.57634,596.27118"
       id="path3363-7"
       inkscape:connector-curvature="0" />
    <path
       style="fill:none;stroke:#000000;stroke-width:1px;stroke-linecap:butt;stroke-linejoin:miter;stroke-opacity:1;display:inline"
       d="m 690.77973,612.27118 253.83052,-328.94915 0,-6.50848 12.47457,-1.8983 0.27119,6.23728"
       id="path3365-4"
       inkscape:connector-curvature="0" />
    <path
       style="fill:none;stroke:#000000;stroke-width:1px;stroke-linecap:butt;stroke-linejoin:miter;stroke-opacity:1;display:inline"
       d="M 885.4916,629.8983 781.08482,624.74576"
       id="path3367-9"
       inkscape:connector-curvature="0" />
    <path
       style="fill:none;stroke:#000000;stroke-width:1px;stroke-linecap:butt;stroke-linejoin:miter;stroke-opacity:1;display:inline"
       d="M 810.91533,392.88135 796.00007,383.9322"
       id="path3369-2"
       inkscape:connector-curvature="0" />
    <path
       style="fill:none;stroke:#000000;stroke-width:1px;stroke-linecap:butt;stroke-linejoin:miter;stroke-opacity:1;display:inline"
       d="M 734.98312,469.08474 716.27126,456.88135"
       id="path3371-3"
       inkscape:connector-curvature="0" />
    <path
       style="fill:none;stroke:#000000;stroke-width:1px;stroke-linecap:butt;stroke-linejoin:miter;stroke-opacity:1;display:inline"
       d="M 663.3899,544.20338 638.71194,531.99999"
       id="path3373-3"
       inkscape:connector-curvature="0" />
    <path
       style="fill:none;stroke:#000000;stroke-width:1px;stroke-linecap:butt;stroke-linejoin:miter;stroke-opacity:1;display:inline"
       d="M 627.05092,580.27118 604.27126,569.42372"
       id="path3375-6"
       inkscape:connector-curvature="0" />
    <path
       style="fill:none;stroke:#000000;stroke-width:1px;stroke-linecap:butt;stroke-linejoin:miter;stroke-opacity:1;display:inline"
       d="M 607.79668,600.61016 583.11874,588.94915"
       id="path3377-8"
       inkscape:connector-curvature="0" />
    <path
       style="fill:none;stroke:#000000;stroke-width:1px;stroke-linecap:butt;stroke-linejoin:miter;stroke-opacity:1;display:inline"
       d="m 573.89834,624.47457 c 0,-2.71187 -7.322,-28.74576 -7.322,-28.74576"
       id="path3379-7"
       inkscape:connector-curvature="0" />
    <path
       style="fill:none;stroke:#000000;stroke-width:1px;stroke-linecap:butt;stroke-linejoin:miter;stroke-opacity:1;display:inline"
       d="m 585.01704,620.94915 81.35591,-80.81356 146.44068,-153.76272 106.84746,-110.10169 12.20339,-6.77966 34.98305,-10.0339"
       id="path3381-4"
       inkscape:connector-curvature="0" />
    <path
       style="fill:none;stroke:#000000;stroke-width:1px;stroke-linecap:butt;stroke-linejoin:miter;stroke-opacity:1"
       d="m 83.606388,699.54585 c 0,0 15.587977,113.25376 17.641712,170.2809 1.47301,40.90178 -3.835152,122.72498 -3.835152,122.72498"
       id="path3540"
       inkscape:connector-curvature="0"
       sodipodi:nodetypes="csc" />
    <path
       style="fill:none;stroke:#000000;stroke-width:1px;stroke-linecap:butt;stroke-linejoin:miter;stroke-opacity:1;display:inline"
       d="m 235.3965,696.74349 c 0,0 15.58798,113.25376 17.64171,170.2809 1.47301,40.90178 -3.83515,122.72501 -3.83515,122.72501"
       id="path3540-4"
       inkscape:connector-curvature="0"
       sodipodi:nodetypes="csc" />
    <path
       style="fill:none;stroke:#000000;stroke-width:1px;stroke-linecap:butt;stroke-linejoin:miter;stroke-opacity:1;display:inline"
       d="m 357.94149,694.77882 c 0,0 15.58798,113.25376 17.64172,170.2809 1.47301,40.90178 -3.83516,122.72498 -3.83516,122.72498"
       id="path3540-2"
       inkscape:connector-curvature="0"
       sodipodi:nodetypes="csc" />
    <path
       style="fill:none;stroke:#000000;stroke-width:1px;stroke-linecap:butt;stroke-linejoin:miter;stroke-opacity:1;display:inline"
       d="m 412.95243,688.04038 c 0,0 15.58797,113.25376 17.64171,170.2809 1.47301,40.90178 -3.83515,122.72498 -3.83515,122.72498"
       id="path3540-3"
       inkscape:connector-curvature="0"
       sodipodi:nodetypes="csc" />
    <path
       style="fill:none;stroke:#000000;stroke-width:1px;stroke-linecap:butt;stroke-linejoin:miter;stroke-opacity:1"
       d="m 61.362487,777.01599 c 0,0 121.793163,-30.37507 184.087463,-34.5164 72.80809,-4.84029 218.60386,11.50547 218.60386,11.50547"
       id="path3578"
       inkscape:connector-curvature="0"
       sodipodi:nodetypes="cac" />
    <path
       style="fill:none;stroke:#000000;stroke-width:1px;stroke-linecap:butt;stroke-linejoin:miter;stroke-opacity:1"
       d="m 68.265767,894.37175 c 0,0 125.583223,29.3237 189.456673,28.76366 68.72171,-0.60255 203.26324,-34.5164 203.26324,-34.5164"
       id="path3588"
       inkscape:connector-curvature="0"
       sodipodi:nodetypes="cac" />
    <path
       style="fill:none;stroke:#000000;stroke-width:1px;stroke-linecap:butt;stroke-linejoin:miter;stroke-opacity:1;display:inline"
       d="m 506.08468,972.0722 c 0,0 15.58798,-113.25373 17.64171,-170.28087 1.47301,-40.90178 -3.83515,-122.72497 -3.83515,-122.72497"
       id="path3540-29"
       inkscape:connector-curvature="0"
       sodipodi:nodetypes="csc" />
    <path
       style="fill:none;stroke:#000000;stroke-width:1px;stroke-linecap:butt;stroke-linejoin:miter;stroke-opacity:1;display:inline"
       d="m 657.87479,974.8746 c 0,0 15.58798,-113.25377 17.64171,-170.28091 1.47301,-40.90178 -3.83515,-122.72503 -3.83515,-122.72503"
       id="path3540-4-3"
       inkscape:connector-curvature="0"
       sodipodi:nodetypes="csc" />
    <path
       style="fill:none;stroke:#000000;stroke-width:1px;stroke-linecap:butt;stroke-linejoin:miter;stroke-opacity:1;display:inline"
       d="m 780.41978,976.8393 c 0,0 15.58798,-113.2538 17.64172,-170.28094 1.47301,-40.90178 -3.83516,-122.725 -3.83516,-122.725"
       id="path3540-2-3"
       inkscape:connector-curvature="0"
       sodipodi:nodetypes="csc" />
    <path
       style="fill:none;stroke:#000000;stroke-width:1px;stroke-linecap:butt;stroke-linejoin:miter;stroke-opacity:1;display:inline"
       d="m 835.43072,983.5777 c 0,0 15.58797,-113.25376 17.64171,-170.2809 1.47301,-40.90178 -3.83515,-122.72494 -3.83515,-122.72494"
       id="path3540-3-4"
       inkscape:connector-curvature="0"
       sodipodi:nodetypes="csc" />
    <path
       style="fill:none;stroke:#000000;stroke-width:1px;stroke-linecap:butt;stroke-linejoin:miter;stroke-opacity:1;display:inline"
       d="m 483.84078,894.60209 c 0,0 121.79316,30.37507 184.08746,34.5164 72.80809,4.84029 218.60386,-11.50547 218.60386,-11.50547"
       id="path3578-2"
       inkscape:connector-curvature="0"
       sodipodi:nodetypes="cac" />
    <path
       style="fill:none;stroke:#000000;stroke-width:1px;stroke-linecap:butt;stroke-linejoin:miter;stroke-opacity:1;display:inline"
       d="m 490.74406,777.24633 c 0,0 125.58322,-29.3237 189.45667,-28.76366 68.72171,0.60255 203.26324,34.5164 203.26324,34.5164"
       id="path3588-5"
       inkscape:connector-curvature="0"
       sodipodi:nodetypes="cac" />
  </g>
</svg>
